<svg xmlns="http://www.w3.org/2000/svg" viewBox="0 0 700 636" role="img" aria-label="Time and Tides Events Beachfun Events logo"><defs><path id="topArc" d="M 118 302 A 235 235 0 0 1 582 302"/><path id="bottomArc" d="M 584 374 A 235 235 0 0 1 116 374"/><linearGradient id="sea" x1="0" y1="0" x2="0" y2="1"><stop offset="0" stop-color="#20c9c5"/><stop offset="1" stop-color="#0087b8"/></linearGradient><linearGradient id="wave" x1="0" y1="0" x2="1" y2="1"><stop offset="0" stop-color="#0c4d87"/><stop offset="1" stop-color="#00a8c8"/></linearGradient><linearGradient id="sun" x1="0" y1="0" x2="1" y2="1"><stop offset="0" stop-color="#ffd45b"/><stop offset="1" stop-color="#f5a51d"/></linearGradient></defs><rect width="700" height="636" fill="white" fill-opacity="0"/><circle cx="350" cy="318" r="260" fill="#fff" stroke="#e31b3b" stroke-width="15"/><circle cx="350" cy="318" r="238" fill="#fff" stroke="#173f66" stroke-width="7"/><text fill="#123f66" font-family="Arial,sans-serif" font-size="45" font-weight="900" letter-spacing="1"><textPath href="#topArc" startOffset="50%" text-anchor="middle">TIME AND TIDES EVENTS</textPath></text><text fill="#123f66" font-family="Arial,sans-serif" font-size="35" font-weight="900" letter-spacing="1"><textPath href="#bottomArc" startOffset="50%" text-anchor="middle">BEACHFUN EVENTS</textPath></text><g transform="translate(0 8)"><circle cx="451" cy="265" r="59" fill="url(#sun)"/><path d="M116 330H584V465H116Z" fill="url(#sea)"/><path d="M116 347 C165 332 200 365 247 347 S331 331 378 347 S467 365 515 347 S565 332 584 347" fill="none" stroke="#fff" stroke-width="6"/><path d="M116 375 C165 360 200 393 247 375 S331 359 378 375 S467 393 515 375 S565 360 584 375" fill="none" stroke="#fff" stroke-width="5" opacity=".9"/><path d="M116 403 C165 388 200 421 247 403 S331 387 378 403 S467 421 515 403 S565 388 584 403" fill="none" stroke="#fff" stroke-width="5" opacity=".85"/><path d="M126 455 C181 420 208 384 242 376 C274 368 305 380 318 402 C329 421 320 439 302 447 C278 457 254 444 252 425 C264 442 286 445 300 430 C315 414 305 394 286 389 C255 381 230 408 207 436 C185 463 155 476 126 455Z" fill="url(#wave)" stroke="#fff" stroke-width="9"/><path d="M155 465 C223 497 319 495 390 452 C420 434 432 439 452 456 C421 493 363 518 296 519 C239 520 187 503 155 465Z" fill="#0b568f" stroke="#fff" stroke-width="9"/><path d="M187 470 C246 490 315 482 369 451" fill="none" stroke="#1fc5cf" stroke-width="10" stroke-linecap="round"/><path d="M286 337 C283 294 287 246 301 208 C312 178 331 151 350 139 C367 129 388 129 407 137 C385 143 366 156 355 181 C338 220 340 276 352 337Z" fill="#123f66"/><g fill="#123f66"><path d="M350 168 C314 153 280 128 263 101 C296 101 328 113 352 134 C331 98 332 71 341 47 C363 75 371 106 358 137 C381 100 412 80 446 76 C431 111 400 139 363 157Z"/><path d="M344 157 C309 131 286 98 279 71 C310 76 339 91 356 119 C351 92 359 69 376 49 C387 82 378 117 356 143Z"/><path d="M355 159 C392 137 423 127 457 130 C438 153 409 168 374 171Z"/><path d="M351 174 C383 164 416 168 447 185 C413 191 383 187 358 179Z"/><path d="M346 176 C316 169 291 175 266 191 C295 196 321 190 347 181Z"/></g><g stroke="#173f66" stroke-width="6" fill="none" stroke-linecap="round"><path d="M435 217q22-18 44 0"/><path d="M469 202q18-15 36 0"/><path d="M504 187q14-12 28 0"/></g><g transform="translate(408 285)"><path d="M8 38 C8 4 32-10 70-10 C108-10 132 4 132 38" fill="#123f66" stroke="#fff" stroke-width="8"/><rect x="0" y="34" width="140" height="18" rx="9" fill="#123f66" stroke="#fff" stroke-width="7"/><path d="M10 55H130V73H10Z" fill="#f7c77d" stroke="#fff" stroke-width="6"/><path d="M18 58l8 12M34 58l8 12M50 58l8 12M66 58l8 12M82 58l8 12M98 58l8 12M114 58l8 12" stroke="#123f66" stroke-width="4"/><path d="M14 74H126V104C126 125 108 139 70 139S14 125 14 104Z" fill="#e31b3b" stroke="#fff" stroke-width="7"/><circle cx="70" cy="12" r="7" fill="#fff" stroke="#123f66" stroke-width="4"/><path d="M52-9V-25Q70-35 88-25V-9" fill="none" stroke="#123f66" stroke-width="7" stroke-linejoin="round"/><path d="M35 136L24 186M105 136L116 186M55 137L51 183M85 137L89 183" stroke="#123f66" stroke-width="10" stroke-linecap="round"/><path d="M18 186H55M85 186H122" stroke="#123f66" stroke-width="9" stroke-linecap="round"/><path d="M25 22 C8 2 10-16 24-31 M40 19 C27-3 30-22 44-39 M104 20 C119 0 116-19 103-34" stroke="#1386b5" stroke-width="8" fill="none" stroke-linecap="round"/></g></g><g fill="none" stroke="#e31b3b" stroke-width="10"><path d="M96 302l-27 17 27 17"/><path d="M604 302l27 17-27 17"/><path d="M96 336c0 31 8 54 22 76"/><path d="M604 336c0 31-8 54-22 76"/></g><g fill="#e31b3b"><path d="M103 394l-18 30 31-6Z"/><path d="M597 394l18 30-31-6Z"/></g><circle cx="118" cy="496" r="11" fill="none" stroke="#173f66" stroke-width="5"/><circle cx="582" cy="496" r="11" fill="none" stroke="#173f66" stroke-width="5"/></svg>